<svg width="40" height="35" viewBox="0 0 40 35" id="logo" xmlns="http://www.w3.org/2000/svg">
<path d="M17.0203 0.0289867C17.007 0.0353741 16.2337 0.0673115 15.3003 0.0864737C14.367 0.112023 13.3604 0.143961 13.0671 0.156736C12.7737 0.16951 11.8871 0.201445 11.1005 0.220607C10.3138 0.239769 9.3205 0.265319 8.90052 0.284482C8.48053 0.297256 7.59388 0.329194 6.9339 0.348356C3.94731 0.43778 3.68066 0.463329 3.10734 0.712438C2.52735 0.961546 1.35405 2.2007 0.92073 3.01829C0.660737 3.51651 0.547407 4.14247 0.640738 4.61514C0.680737 4.83231 1.11406 6.58885 1.60071 8.52423C2.08737 10.4532 2.64735 12.676 2.84068 13.4553C3.04067 14.241 3.214 14.8797 3.24067 14.8797C3.26067 14.8797 3.56066 14.6753 3.90732 14.4262C5.54727 13.2509 7.12723 12.5355 8.86052 12.1906C9.65383 12.0309 10.8605 12.0054 11.4671 12.1267C12.1471 12.2672 12.8137 12.6122 13.3071 13.0848C13.9404 13.698 14.3204 14.4198 14.587 15.5504C14.727 16.1125 14.727 16.2913 14.747 24.1797C14.7737 33.0199 14.787 32.7261 14.3804 33.5564C14.1404 34.0419 13.6471 34.5657 13.2071 34.8148L12.8671 35H13.6004C14.4404 35 14.9204 34.9042 15.567 34.604C16.167 34.3293 16.9403 33.582 17.2203 33.0135C17.6003 32.2534 17.6336 31.9851 17.6336 29.7496V27.7248L17.8536 27.6864C18.5003 27.5778 24.1401 26.8241 24.3134 26.8241C24.4201 26.8241 26.4534 27.4884 28.8266 28.306C32.7932 29.6729 33.1665 29.7879 33.5732 29.7879C33.9132 29.7879 34.0932 29.7496 34.3732 29.6154C34.7132 29.4557 35.2931 28.9703 35.2265 28.9C35.2065 28.8873 33.5132 28.3252 31.4599 27.6545C29.4133 26.9838 27.7133 26.4089 27.6867 26.3834C27.66 26.3642 29.82 26.0449 32.4865 25.6808C35.1531 25.3167 37.3997 25.0101 37.4864 24.9909L37.6331 24.959V26.7666C37.6331 28.7914 37.5797 29.1939 37.2198 29.8901C36.9798 30.3627 36.1731 31.1931 35.7331 31.4103L35.4665 31.5444L35.6865 31.5508C36.0798 31.5508 36.9264 31.3528 37.3997 31.142C38.5864 30.6119 39.4064 29.7048 39.8463 28.4529L39.9997 28.0058V21.0755V14.1451L39.813 13.6341C39.3664 12.4333 38.493 11.5455 37.2997 11.092C36.6864 10.862 36.2731 10.8045 35.1998 10.7981H34.2665L34.6132 10.9195C35.6131 11.2644 36.5864 12.0245 37.0531 12.8357C37.5464 13.6916 37.5864 13.9471 37.6131 16.3169L37.6397 18.4247L37.4397 18.0989C36.8064 17.0642 35.1865 16.2913 32.0399 15.5184C30.7666 15.2118 28.82 14.8158 28.5533 14.8158C28.4467 14.8158 28.3667 14.803 28.3667 14.7839C28.3667 14.7328 28.8866 14.2921 29.2266 14.0621C29.7733 13.6789 30.4533 13.3276 31.1666 13.0465L31.8666 12.7718H31.2866C29.9066 12.7718 28.2933 13.1934 26.6334 13.9982C25.8401 14.3815 25.5334 14.4964 25.3201 14.4964C25.0601 14.4964 25.0401 14.4837 25.0001 14.2857C24.9734 14.1771 24.5334 12.4397 24.0201 10.4404C21.6268 1.06375 21.7935 1.63861 21.3735 1.09568C21.0735 0.70605 20.4335 0.278096 19.9136 0.124798C19.5269 0.00982522 19.3136 -0.00933793 18.2536 0.00343687C17.5869 0.00982427 17.0336 0.0225993 17.0203 0.0289867Z" fill="currentColor"/>
<path d="M9.76752 14.2216C6.55427 14.5218 3.63435 16.2591 2.01439 18.8269C1.66107 19.3826 1.10775 20.5323 0.734429 21.4968C-0.358875 24.2817 -0.225545 26.7728 1.09442 28.178C1.40108 28.5102 1.92106 28.8998 2.26772 29.0723C2.38105 29.1297 4.43433 29.9473 6.83426 30.8863C11.1341 32.5789 11.2075 32.6045 11.6741 32.6045C12.1141 32.6045 12.1808 32.5853 12.5074 32.3682C12.8874 32.119 13.3408 31.6208 13.2541 31.5506C13.2208 31.525 12.2875 31.1609 11.1675 30.733C8.05423 29.5577 4.26767 28.0567 3.60102 27.7373C2.70104 27.3093 2.30105 26.4917 2.38772 25.2845C2.45438 24.3775 2.70104 23.4194 3.1477 22.3208C3.42769 21.6309 4.37433 19.7211 4.421 19.7658C4.43433 19.7786 4.74099 20.9092 5.09431 22.2697L5.73429 24.748L9.38753 25.7444C11.9741 26.4534 13.0541 26.7217 13.0741 26.6642C13.0941 26.6259 13.0941 24.2625 13.0808 21.4202C13.0608 16.9681 13.0474 16.208 12.9541 15.9334C12.5074 14.5409 11.5941 14.0491 9.76752 14.2216Z" fill="currentColor"/>
</svg>
