<svg width="82" height="27" viewBox="0 0 82 27" id="logo_m" fill="none" xmlns="http://www.w3.org/2000/svg">
<ellipse cx="13" cy="23" rx="12.5" ry="3.5" fill="#D9D9D9"/>
<path d="M11.1381 2.51822C11.1297 2.52224 10.6464 2.54231 10.0631 2.55436C9.47976 2.57042 8.85061 2.59049 8.66728 2.59852C8.48396 2.60655 7.9298 2.62662 7.43815 2.63867C6.9465 2.65071 6.32568 2.66677 6.06319 2.67882C5.80069 2.68685 5.24654 2.70692 4.83405 2.71897C2.96744 2.77518 2.80078 2.79123 2.44245 2.94782C2.07996 3.1044 1.34665 3.8833 1.07582 4.39721C0.913327 4.71037 0.842495 5.10384 0.900827 5.40095C0.925827 5.53745 1.19665 6.64156 1.50081 7.85809C1.80497 9.0706 2.15496 10.4678 2.27579 10.9576C2.40079 11.4515 2.50912 11.8529 2.52578 11.8529C2.53828 11.8529 2.72578 11.7245 2.94244 11.5679C3.96741 10.8291 4.95488 10.3795 6.03819 10.1627C6.53401 10.0623 7.28816 10.0462 7.66731 10.1225C8.0923 10.2108 8.50896 10.4276 8.81728 10.7248C9.2131 11.1102 9.4506 11.5639 9.61726 12.2745C9.70476 12.6278 9.70476 12.7402 9.71726 17.6987C9.73392 23.2554 9.74226 23.0707 9.4881 23.5926C9.3381 23.8978 9.02977 24.227 8.75478 24.3836L8.54229 24.5H9.00061C9.52559 24.5 9.82559 24.4398 10.2297 24.2511C10.6047 24.0784 11.0881 23.6087 11.263 23.2514C11.5005 22.7736 11.5214 22.6049 11.5214 21.1997V19.927L11.6589 19.9029C12.063 19.8346 15.5879 19.3609 15.6963 19.3609C15.7629 19.3609 17.0337 19.7784 18.517 20.2923C20.9961 21.1515 21.2294 21.2238 21.4836 21.2238C21.6961 21.2238 21.8086 21.1997 21.9836 21.1154C22.1961 21.015 22.5586 20.7099 22.5169 20.6657C22.5044 20.6577 21.4461 20.3044 20.1628 19.8828C18.8837 19.4613 17.8212 19.0999 17.8045 19.0839C17.7879 19.0718 19.1378 18.8711 20.8045 18.6422C22.4711 18.4134 23.8752 18.2206 23.9294 18.2086L24.021 18.1885V19.3247C24.021 20.5975 23.9877 20.8504 23.7627 21.2881C23.6127 21.5852 23.1086 22.1071 22.8336 22.2436L22.6669 22.3279L22.8044 22.3319C23.0502 22.3319 23.5794 22.2075 23.8752 22.075C24.6169 21.7417 25.1293 21.1716 25.4043 20.3847L25.5002 20.1036V15.7474V11.3912L25.3835 11.07C25.1043 10.3152 24.5585 9.75715 23.8127 9.47209C23.4294 9.32755 23.1711 9.29142 22.5002 9.2874H21.9169L22.1336 9.36369C22.7586 9.58049 23.3669 10.0583 23.6585 10.5682C23.9669 11.1062 23.9919 11.2668 24.0085 12.7563L24.0252 14.0812L23.9002 13.8765C23.5044 13.2261 22.4919 12.7402 20.5253 12.2544C19.7295 12.0617 18.5129 11.8128 18.3462 11.8128C18.2795 11.8128 18.2295 11.8048 18.2295 11.7927C18.2295 11.7606 18.5545 11.4836 18.767 11.339C19.1087 11.0981 19.5337 10.8773 19.9795 10.7007L20.417 10.528H20.0545C19.192 10.528 18.1837 10.793 17.1462 11.2989C16.6504 11.5398 16.4587 11.6121 16.3254 11.6121C16.1629 11.6121 16.1504 11.604 16.1254 11.4796C16.1088 11.4113 15.8338 10.3192 15.5129 9.06257C14.0171 3.16864 14.1213 3.52998 13.8588 3.18871C13.6713 2.9438 13.2713 2.6748 12.9463 2.57845C12.7047 2.50618 12.5713 2.49413 11.9089 2.50216C11.4922 2.50618 11.1464 2.51421 11.1381 2.51822Z" fill="#051E47"/>
<path d="M6.6047 11.4394C4.59642 11.6281 2.77147 12.7202 1.759 14.3342C1.53817 14.6835 1.19235 15.4062 0.959018 16.0124C0.275703 17.7629 0.359034 19.3287 1.18401 20.212C1.37567 20.4208 1.70066 20.6657 1.91733 20.7741C1.98816 20.8103 3.27146 21.3242 4.77142 21.9144C7.45884 22.9783 7.50467 22.9944 7.79633 22.9944C8.07133 22.9944 8.11299 22.9823 8.31715 22.8458C8.55465 22.6892 8.83797 22.3761 8.78381 22.3319C8.76297 22.3159 8.17966 22.087 7.47968 21.818C5.53389 21.0793 3.16729 20.1357 2.75064 19.935C2.18815 19.666 1.93816 19.1521 1.99232 18.3933C2.03399 17.8231 2.18815 17.2209 2.46731 16.5303C2.64231 16.0967 3.23396 14.8963 3.26312 14.9244C3.27146 14.9324 3.46312 15.643 3.68394 16.4982L4.08393 18.056L6.36721 18.6823C7.98383 19.128 8.65881 19.2966 8.67131 19.2605C8.68381 19.2364 8.68381 17.7509 8.67548 15.9642C8.66298 13.1658 8.65464 12.688 8.59631 12.5154C8.31715 11.6401 7.74634 11.331 6.6047 11.4394Z" fill="#051E47"/>
<path d="M39.9659 19.6775C39.3034 19.6775 38.6763 19.5946 38.0848 19.429C37.4932 19.2634 36.9668 19.0149 36.5054 18.6837C36.0439 18.3406 35.6772 17.9206 35.4051 17.4237C35.1448 16.9268 35.0028 16.347 34.9792 15.6845C34.9792 15.578 35.0146 15.4893 35.0856 15.4183C35.1566 15.3355 35.2513 15.2941 35.3696 15.2941H37.3927C37.5465 15.2941 37.6648 15.3355 37.7476 15.4183C37.8423 15.5011 37.9132 15.6194 37.9606 15.7732C38.0197 16.1518 38.1439 16.4594 38.3332 16.6961C38.5225 16.9327 38.7592 17.1101 39.0431 17.2285C39.3389 17.3349 39.6701 17.3882 40.0369 17.3882C40.7113 17.3882 41.2259 17.1693 41.5808 16.7315C41.9476 16.2938 42.131 15.6727 42.131 14.8682V9.43775H36.2214C36.1031 9.43775 36.0025 9.39634 35.9197 9.31352C35.8369 9.2307 35.7955 9.13014 35.7955 9.01183V7.52113C35.7955 7.39099 35.8369 7.28451 35.9197 7.20169C36.0025 7.11887 36.1031 7.07746 36.2214 7.07746H44.58C44.7101 7.07746 44.8166 7.11887 44.8994 7.20169C44.9823 7.28451 45.0237 7.39099 45.0237 7.52113V14.9392C45.0237 15.9566 44.8107 16.8203 44.3848 17.5301C43.9589 18.2282 43.3673 18.7606 42.6101 19.1273C41.853 19.4941 40.9715 19.6775 39.9659 19.6775ZM47.7767 19.5C47.6584 19.5 47.5579 19.4586 47.475 19.3758C47.3922 19.293 47.3508 19.1865 47.3508 19.0563V10.7155C47.3508 10.5854 47.3922 10.4789 47.475 10.3961C47.5579 10.3132 47.6584 10.2718 47.7767 10.2718H49.5514C49.6815 10.2718 49.788 10.3132 49.8708 10.3961C49.9536 10.4789 49.995 10.5854 49.995 10.7155V19.0563C49.995 19.1865 49.9536 19.293 49.8708 19.3758C49.788 19.4586 49.6815 19.5 49.5514 19.5H47.7767ZM47.7235 8.85211C47.6052 8.85211 47.5046 8.8107 47.4218 8.72789C47.339 8.64507 47.2976 8.53859 47.2976 8.40845V6.98873C47.2976 6.85859 47.339 6.75211 47.4218 6.66929C47.5046 6.57465 47.6052 6.52732 47.7235 6.52732H49.5869C49.717 6.52732 49.8235 6.57465 49.9063 6.66929C50.0009 6.75211 50.0483 6.85859 50.0483 6.98873V8.40845C50.0483 8.53859 50.0009 8.64507 49.9063 8.72789C49.8235 8.8107 49.717 8.85211 49.5869 8.85211H47.7235ZM52.6644 19.5C52.5342 19.5 52.4277 19.4586 52.3449 19.3758C52.2621 19.293 52.2207 19.1865 52.2207 19.0563V7.34366C52.2207 7.21352 52.2621 7.10704 52.3449 7.02423C52.4277 6.94141 52.5342 6.9 52.6644 6.9H54.581C54.6993 6.9 54.7998 6.94141 54.8827 7.02423C54.9655 7.10704 55.0069 7.21352 55.0069 7.34366V11.3366C55.3263 10.958 55.7167 10.6563 56.1782 10.4315C56.6396 10.2068 57.1956 10.0944 57.8463 10.0944C58.5444 10.0944 59.1596 10.2541 59.692 10.5735C60.2362 10.8811 60.6621 11.3366 60.9697 11.94C61.2773 12.5315 61.4311 13.2532 61.4311 14.1051V19.0563C61.4311 19.1865 61.3897 19.293 61.3069 19.3758C61.2241 19.4586 61.1176 19.5 60.9875 19.5H59.0531C58.9348 19.5 58.8342 19.4586 58.7514 19.3758C58.6686 19.293 58.6272 19.1865 58.6272 19.0563V14.2115C58.6272 13.5845 58.4734 13.0994 58.1658 12.7563C57.8582 12.4014 57.4204 12.2239 56.8525 12.2239C56.2965 12.2239 55.8469 12.4014 55.5038 12.7563C55.1725 13.0994 55.0069 13.5845 55.0069 14.2115V19.0563C55.0069 19.1865 54.9655 19.293 54.8827 19.3758C54.7998 19.4586 54.6993 19.5 54.581 19.5H52.6644ZM66.2701 19.6775C65.643 19.6775 65.0811 19.5592 64.5842 19.3225C64.0873 19.0741 63.6909 18.7428 63.3951 18.3287C63.0994 17.9146 62.9515 17.4532 62.9515 16.9445C62.9515 16.1045 63.2887 15.442 63.963 14.9569C64.6492 14.4718 65.5484 14.1406 66.6605 13.9631L68.9853 13.6259V13.3065C68.9853 12.8451 68.8788 12.4901 68.6659 12.2417C68.4529 11.9932 68.0802 11.869 67.5478 11.869C67.1574 11.869 66.8439 11.9459 66.6073 12.0997C66.3706 12.2535 66.1873 12.4546 66.0571 12.7031C65.9625 12.8569 65.8264 12.9338 65.649 12.9338H63.963C63.8329 12.9338 63.7323 12.8983 63.6613 12.8273C63.5904 12.7445 63.5608 12.6499 63.5726 12.5434C63.5726 12.3423 63.6495 12.1056 63.8033 11.8335C63.9571 11.5614 64.1937 11.2952 64.5132 11.0349C64.8326 10.7628 65.2408 10.538 65.7377 10.3606C66.2346 10.1831 66.8439 10.0944 67.5656 10.0944C68.3109 10.0944 68.9498 10.1831 69.4822 10.3606C70.0146 10.538 70.4405 10.7865 70.7599 11.1059C71.0794 11.4254 71.316 11.798 71.4698 12.2239C71.6236 12.638 71.7005 13.0876 71.7005 13.5727V19.0563C71.7005 19.1865 71.6591 19.293 71.5763 19.3758C71.4935 19.4586 71.387 19.5 71.2568 19.5H69.5177C69.3994 19.5 69.2988 19.4586 69.216 19.3758C69.1332 19.293 69.0918 19.1865 69.0918 19.0563V18.3997C68.938 18.6245 68.7309 18.8375 68.4706 19.0386C68.2104 19.2279 67.8968 19.3817 67.5301 19.5C67.1751 19.6183 66.7551 19.6775 66.2701 19.6775ZM66.9799 17.8318C67.3704 17.8318 67.7194 17.749 68.027 17.5834C68.3346 17.4177 68.5771 17.1634 68.7546 16.8203C68.9321 16.4772 69.0208 16.0454 69.0208 15.5248V15.2231L67.3704 15.4893C66.7315 15.5958 66.2642 15.7555 65.9684 15.9685C65.6726 16.1814 65.5247 16.4417 65.5247 16.7493C65.5247 16.9741 65.5898 17.1693 65.7199 17.3349C65.8619 17.5006 66.0453 17.6248 66.2701 17.7076C66.4949 17.7904 66.7315 17.8318 66.9799 17.8318ZM73.8492 19.5C73.7309 19.5 73.6303 19.4586 73.5475 19.3758C73.4647 19.293 73.4233 19.1865 73.4233 19.0563V17.8673C73.4233 17.749 73.447 17.6425 73.4943 17.5479C73.5534 17.4532 73.6185 17.3645 73.6895 17.2817L78.0374 12.3304H74.0089C73.8788 12.3304 73.7723 12.289 73.6895 12.2062C73.6067 12.1234 73.5653 12.0228 73.5653 11.9045V10.7155C73.5653 10.5854 73.6067 10.4789 73.6895 10.3961C73.7723 10.3132 73.8788 10.2718 74.0089 10.2718H80.9301C81.0602 10.2718 81.1667 10.3132 81.2495 10.3961C81.3323 10.4789 81.3737 10.5854 81.3737 10.7155V11.9932C81.3737 12.0997 81.3501 12.1944 81.3027 12.2772C81.2554 12.36 81.1963 12.4428 81.1253 12.5256L76.8661 17.4414H81.3027C81.421 17.4414 81.5216 17.4828 81.6044 17.5656C81.6872 17.6485 81.7287 17.749 81.7287 17.8673V19.0563C81.7287 19.1865 81.6872 19.293 81.6044 19.3758C81.5216 19.4586 81.421 19.5 81.3027 19.5H73.8492Z" fill="#051E47"/>
</svg>
