<svg width="28" height="28" viewBox="0 0 28 28" id="root" xmlns="http://www.w3.org/2000/svg">
<path d="M13.9336 8.66609C14.4318 8.66609 14.8032 8.27471 14.8032 7.73213V6.26447L15.863 6.85154C16.2978 7.06501 16.8141 6.98496 17.0406 6.61137C17.3123 6.18442 17.1946 5.63294 16.6601 5.33941L14.9119 4.36987C14.1963 3.98739 13.6618 3.98739 12.9462 4.36987L11.198 5.33941C10.6636 5.63294 10.5458 6.18442 10.8176 6.61137C11.0531 6.98496 11.5694 7.06501 11.9951 6.85154L13.0549 6.26447V7.73213C13.0549 8.27471 13.4263 8.66609 13.9336 8.66609ZM5.50941 13.3626C6.00762 13.3626 6.35183 12.9623 6.35183 12.4197V10.9254L7.90079 11.7882C8.35371 12.0372 8.87003 11.9038 9.14178 11.4769C9.41352 11.0588 9.2233 10.5251 8.71604 10.2583L7.30295 9.46663L8.65263 8.71946C9.16895 8.43482 9.332 7.85666 9.01496 7.44749C8.71604 7.04722 8.1816 7.00275 7.70151 7.2607L5.86268 8.28361C5.07461 8.71946 4.66699 9.30652 4.66699 10.3027V12.4286C4.66699 12.9623 5.02932 13.3626 5.50941 13.3626ZM18.7164 11.4769C18.9881 11.9038 19.5135 12.0372 19.9664 11.7882L21.5063 10.9254V12.7577C22.0317 12.6777 22.6658 12.6777 23.1911 12.7577V10.3027C23.1911 9.23536 22.8832 8.76393 22.0045 8.28361L20.1566 7.2607C19.6765 7.00275 19.1421 7.04722 18.8432 7.44749C18.5352 7.85666 18.6892 8.43482 19.2055 8.71946L20.5552 9.46663L19.1421 10.2583C18.6439 10.5251 18.4446 11.0588 18.7164 11.4769ZM13.9336 17.3831C14.4318 17.3831 14.8032 16.9828 14.8032 16.4491V14.6345L16.488 13.6917C16.9862 13.4248 17.1583 12.8823 16.8957 12.4642C16.6239 12.0461 16.1257 11.9038 15.6456 12.1618L13.9336 13.1135L12.2125 12.1618C11.7415 11.9038 11.2342 12.0461 10.9715 12.4642C10.6998 12.8823 10.881 13.4248 11.3701 13.6917L13.0549 14.6345V16.4491C13.0549 16.9828 13.4263 17.3831 13.9336 17.3831ZM7.10367 20.3717C7.60187 20.6475 8.16348 20.5229 8.399 20.0871C8.62545 19.6779 8.46241 19.1798 8.0729 18.9308L7.27577 18.4682L8.51675 17.7744C9.0059 17.4987 9.19612 16.9739 8.92438 16.5558C8.66169 16.1289 8.15442 15.9866 7.67434 16.2445L6.36089 16.9739L6.34277 16.0132C6.3156 15.5151 5.97138 15.1504 5.50941 15.1504C5.02026 15.1504 4.66699 15.5507 4.66699 16.0844V17.4898C4.66699 18.7884 5.10179 19.2688 5.99856 19.758L7.10367 20.3717ZM13.9336 19.082C13.4263 19.082 13.0549 19.4734 13.0549 20.0159V21.6793L11.4788 20.7987C10.9987 20.5318 10.4552 20.6564 10.2197 21.0833C9.98419 21.5281 10.1201 22.0262 10.6092 22.293L13.1365 23.6895C13.689 23.9919 14.1782 23.9919 14.7217 23.6895L17.2489 22.2841C16.8957 21.8305 16.6239 21.3235 16.4427 20.772L14.8032 21.6793V20.0159C14.8032 19.4734 14.4318 19.082 13.9336 19.082Z" fill="currentColor"/>
<path d="M8.399 20.0871C8.16348 20.5229 7.60187 20.6475 7.10367 20.3717L5.99856 19.758C5.10179 19.2688 4.66699 18.7884 4.66699 17.4898V16.0844C4.66699 15.5507 5.02026 15.1504 5.50941 15.1504C5.97138 15.1504 6.3156 15.5151 6.34277 16.0132L6.36089 16.9739L7.67434 16.2445C8.15442 15.9866 8.66169 16.1289 8.92438 16.5558C9.19612 16.9739 9.0059 17.4987 8.51675 17.7744L7.27577 18.4682L8.0729 18.9308C8.46241 19.1798 8.62545 19.6779 8.399 20.0871Z" fill="currentColor"/>
<path d="M19.6017 20.0869C19.8372 20.5227 20.3988 20.6472 20.897 20.3715L22.0021 19.7577C22.8989 19.2685 23.3337 18.7882 23.3337 17.4896V16.0842C23.3337 15.5505 22.9804 15.1502 22.4912 15.1502C22.0293 15.1502 21.6851 15.5149 21.6579 16.013L21.6398 16.9736L20.3263 16.2443C19.8462 15.9863 19.339 16.1286 19.0763 16.5556C18.8045 16.9736 18.9948 17.4984 19.4839 17.7742L20.7249 18.468L19.9278 18.9305C19.5382 19.1796 19.3752 19.6777 19.6017 20.0869Z" fill="currentColor"/>
</svg>
