<svg width="32" height="32" viewBox="0 0 32 32" id="root" xmlns="http://www.w3.org/2000/svg">
<path d="M16.4234 9.9048C16.9928 9.9048 17.4172 9.45751 17.4172 8.83742V7.1601L18.6285 7.83102C19.1254 8.075 19.7154 7.98351 19.9743 7.55655C20.2848 7.06861 20.1502 6.43834 19.5395 6.10288L17.5415 4.99483C16.7236 4.55771 16.1128 4.55771 15.295 4.99483L13.297 6.10288C12.6862 6.43834 12.5517 7.06861 12.8622 7.55655C13.1314 7.98351 13.7215 8.075 14.208 7.83102L15.4192 7.1601V8.83742C15.4192 9.45751 15.8437 9.9048 16.4234 9.9048ZM6.79577 15.2722C7.36515 15.2722 7.75854 14.8148 7.75854 14.1947V12.4869L9.52878 13.4729C10.0464 13.7575 10.6365 13.6051 10.947 13.1171C11.2576 12.6393 11.0402 12.0294 10.4605 11.7244L8.84553 10.8197L10.388 9.96579C10.9781 9.64049 11.1644 8.97973 10.8021 8.51212C10.4605 8.05467 9.8497 8.00384 9.30103 8.29864L7.19951 9.46768C6.29886 9.96579 5.83301 10.6367 5.83301 11.7753V14.2048C5.83301 14.8148 6.2471 15.2722 6.79577 15.2722ZM21.8894 13.1171C22.2 13.6051 22.8004 13.7575 23.318 13.4729L25.0779 12.4869V14.581C25.6784 14.4895 26.403 14.4895 27.0035 14.581V11.7753C27.0035 10.5554 26.6515 10.0166 25.6473 9.46768L23.5354 8.29864C22.9868 8.00384 22.376 8.05467 22.0344 8.51212C21.6824 8.97973 21.8584 9.64049 22.4485 9.96579L23.9909 10.8197L22.376 11.7244C21.8066 12.0294 21.5789 12.6393 21.8894 13.1171ZM16.4234 19.8671C16.9928 19.8671 17.4172 19.4096 17.4172 18.7997V16.7259L19.3428 15.6483C19.9121 15.3434 20.1088 14.7233 19.8086 14.2455C19.498 13.7677 18.9287 13.6051 18.38 13.8999L16.4234 14.9876L14.4565 13.8999C13.9182 13.6051 13.3384 13.7677 13.0382 14.2455C12.7276 14.7233 12.9347 15.3434 13.4937 15.6483L15.4192 16.7259V18.7997C15.4192 19.4096 15.8437 19.8671 16.4234 19.8671ZM8.61778 23.2827C9.18715 23.5978 9.829 23.4555 10.0982 22.9574C10.357 22.4898 10.1706 21.9205 9.72547 21.6359L8.81447 21.1073L10.2327 20.3143C10.7918 19.9992 11.0092 19.3994 10.6986 18.9217C10.3984 18.4337 9.81864 18.2711 9.26997 18.5659L7.76889 19.3994L7.74818 18.3016C7.71713 17.7323 7.32374 17.3155 6.79577 17.3155C6.23675 17.3155 5.83301 17.7729 5.83301 18.3829V19.989C5.83301 21.4732 6.32992 22.0222 7.3548 22.5813L8.61778 23.2827ZM16.4234 21.8087C15.8437 21.8087 15.4192 22.256 15.4192 22.8761V24.777L13.6179 23.7706C13.0693 23.4657 12.4481 23.608 12.179 24.0959C11.9098 24.6042 12.0651 25.1735 12.6241 25.4784L15.5124 27.0744C16.1439 27.4201 16.7029 27.4201 17.3241 27.0744L20.2124 25.4683C19.8086 24.9498 19.498 24.3704 19.291 23.7401L17.4172 24.777V22.8761C17.4172 22.256 16.9928 21.8087 16.4234 21.8087Z" fill="currentColor"/>
<path d="M10.0982 22.9574C9.829 23.4555 9.18715 23.5978 8.61778 23.2827L7.3548 22.5813C6.32992 22.0222 5.83301 21.4732 5.83301 19.989V18.3829C5.83301 17.7729 6.23675 17.3155 6.79577 17.3155C7.32374 17.3155 7.71713 17.7323 7.74818 18.3016L7.76889 19.3994L9.26997 18.5659C9.81864 18.2711 10.3984 18.4337 10.6986 18.9217C11.0092 19.3994 10.7918 19.9992 10.2327 20.3143L8.81447 21.1073L9.72547 21.6359C10.1706 21.9205 10.357 22.4898 10.0982 22.9574Z" fill="currentColor"/>
<path d="M22.9012 22.9571C23.1704 23.4552 23.8122 23.5975 24.3816 23.2824L25.6446 22.581C26.6694 22.0219 27.1663 21.4729 27.1663 19.9888V18.3826C27.1663 17.7727 26.7626 17.3152 26.2036 17.3152C25.6756 17.3152 25.2822 17.732 25.2512 18.3013L25.2305 19.3992L23.7294 18.5656C23.1807 18.2708 22.601 18.4334 22.3008 18.9214C21.9902 19.3992 22.2076 19.9989 22.7666 20.3141L24.1849 21.107L23.2739 21.6356C22.8287 21.9202 22.6424 22.4895 22.9012 22.9571Z" fill="currentColor"/>
</svg>
