<svg width="16" height="16" viewBox="0 0 16 16" id="root" xmlns="http://www.w3.org/2000/svg">
<path d="M2 9C1.44771 9 1 8.55229 1 8C1 7.44772 1.44771 7 2 7L2 9ZM14 7C14.5523 7 15 7.44772 15 8C15 8.55228 14.5523 9 14 9L14 7ZM2 7L14 7L14 9L2 9L2 7Z" fill="currentColor"/>
<path d="M11.3738 12.0403C10.9832 12.4308 10.3501 12.4308 9.95956 12.0403C9.56904 11.6498 9.56904 11.0166 9.95956 10.6261L11.3738 12.0403ZM14 7.99984L14.7071 7.29273C15.0976 7.68325 15.0976 8.31642 14.7071 8.70694L14 7.99984ZM9.95956 5.37361C9.56904 4.98309 9.56904 4.34992 9.95956 3.9594C10.3501 3.56887 10.9832 3.56887 11.3738 3.9594L9.95956 5.37361ZM9.95956 10.6261L13.2929 7.29273L14.7071 8.70694L11.3738 12.0403L9.95956 10.6261ZM13.2929 8.70694L9.95956 5.37361L11.3738 3.9594L14.7071 7.29273L13.2929 8.70694Z" fill="currentColor"/>
</svg>
