<svg width="16" height="16" viewBox="0 0 16 16" id="root" xmlns="http://www.w3.org/2000/svg">
<path d="M14 9C14.5523 9 15 8.55229 15 8C15 7.44772 14.5523 7 14 7L14 9ZM2 7C1.44772 7 1 7.44772 1 8C1 8.55228 1.44772 9 2 9L2 7ZM14 7L2 7L2 9L14 9L14 7Z" fill="currentColor"/>
<path d="M4.62623 12.0403C5.01675 12.4308 5.64992 12.4308 6.04044 12.0403C6.43096 11.6498 6.43096 11.0166 6.04044 10.6261L4.62623 12.0403ZM2 7.99984L1.29289 7.29273C0.902369 7.68325 0.902369 8.31642 1.29289 8.70694L2 7.99984ZM6.04044 5.37361C6.43096 4.98309 6.43096 4.34992 6.04044 3.9594C5.64992 3.56887 5.01675 3.56887 4.62623 3.9594L6.04044 5.37361ZM6.04044 10.6261L2.70711 7.29273L1.29289 8.70694L4.62623 12.0403L6.04044 10.6261ZM2.70711 8.70694L6.04044 5.37361L4.62623 3.9594L1.29289 7.29273L2.70711 8.70694Z" fill="currentColor"/>
</svg>
