<svg width="32" height="33" viewBox="0 0 32 33" id="root" xmlns="http://www.w3.org/2000/svg">
<path d="M12.2739 21.8206H23.9658C24.4379 21.8206 24.8698 21.4489 24.8698 20.9166C24.8698 20.3943 24.4379 20.0226 23.9658 20.0226H12.5049C12.0227 20.0226 11.7214 19.6911 11.6511 19.1789L11.5004 18.1342H24.0462C25.583 18.1342 26.3966 17.2001 26.6176 15.6733L27.371 10.6409C27.391 10.5103 27.4111 10.3396 27.4111 10.2291C27.4111 9.63644 26.9993 9.23465 26.3062 9.23465H10.2047L10.054 8.14983C9.92341 7.27595 9.57185 6.83398 8.45689 6.83398H5.01158C4.50935 6.83398 4.06738 7.27595 4.06738 7.78823C4.06738 8.31055 4.50935 8.75251 5.01158 8.75251H8.15555L9.71247 19.3797C9.93345 20.8965 10.737 21.8206 12.2739 21.8206ZM25.3218 11.0326L24.689 15.4925C24.6087 16.0047 24.3375 16.3262 23.8453 16.3262L11.2393 16.3362L10.4658 11.0326H25.3218ZM13.0975 26.863C14.0718 26.863 14.8553 26.0795 14.8553 25.1052C14.8553 24.1309 14.0718 23.3474 13.0975 23.3474C12.1232 23.3474 11.3397 24.1309 11.3397 25.1052C11.3397 26.0795 12.1232 26.863 13.0975 26.863ZM22.3788 26.863C23.3531 26.863 24.1265 26.0795 24.1265 25.1052C24.1265 24.1309 23.3531 23.3474 22.3788 23.3474C21.4044 23.3474 20.6109 24.1309 20.6109 25.1052C20.6109 26.0795 21.4044 26.863 22.3788 26.863Z" fill="currentColor"/>
</svg>
