<svg width="32" height="32" viewBox="0 0 32 32" id="root" xmlns="http://www.w3.org/2000/svg">
<path d="M5.8252 13.2828C5.8252 17.5718 9.43122 21.8107 15.0361 25.4268C15.3475 25.6276 15.7292 25.8285 15.9904 25.8285C16.2515 25.8285 16.6332 25.6276 16.9446 25.4268C22.5596 21.8107 26.1556 17.5718 26.1556 13.2828C26.1556 9.57631 23.5942 7.00488 20.3096 7.00488C18.391 7.00488 16.8944 7.87877 15.9904 9.20466C15.1064 7.88881 13.5997 7.00488 11.6812 7.00488C8.38658 7.00488 5.8252 9.57631 5.8252 13.2828ZM7.89439 13.2727C7.89439 10.7415 9.5618 9.02386 11.8018 9.02386C13.6098 9.02386 14.6243 10.1187 15.2571 11.073C15.5384 11.4848 15.7292 11.6154 15.9904 11.6154C16.2616 11.6154 16.4323 11.4747 16.7236 11.073C17.4067 10.1388 18.381 9.02386 20.179 9.02386C22.429 9.02386 24.0964 10.7415 24.0964 13.2727C24.0964 16.8085 20.4201 20.7259 16.1812 23.5384C16.0908 23.5986 16.0306 23.6388 15.9904 23.6388C15.9502 23.6388 15.8899 23.5986 15.8096 23.5384C11.5707 20.7259 7.89439 16.8085 7.89439 13.2727Z" fill="currentColor"/>
</svg>
