<svg width="16" height="16" viewBox="0 0 16 16" id="root" xmlns="http://www.w3.org/2000/svg">
<path d="M2.9126 6.89139C2.9126 9.03592 4.71561 11.1553 7.51807 12.9634C7.67376 13.0638 7.86461 13.1643 7.99519 13.1643C8.12577 13.1643 8.31662 13.0638 8.47231 12.9634C11.2798 11.1553 13.0778 9.03592 13.0778 6.89139C13.0778 5.03816 11.7971 3.75244 10.1548 3.75244C9.19552 3.75244 8.4472 4.18938 7.99519 4.85233C7.55322 4.19441 6.79987 3.75244 5.84061 3.75244C4.19329 3.75244 2.9126 5.03816 2.9126 6.89139ZM3.9472 6.88637C3.9472 5.62074 4.7809 4.76193 5.90088 4.76193C6.8049 4.76193 7.31215 5.30936 7.62856 5.78648C7.76918 5.9924 7.86461 6.05769 7.99519 6.05769C8.13079 6.05769 8.21617 5.98737 8.36182 5.78648C8.70333 5.31941 9.1905 4.76193 10.0895 4.76193C11.2145 4.76193 12.0482 5.62074 12.0482 6.88637C12.0482 8.65423 10.21 10.6129 8.09061 12.0192C8.04541 12.0493 8.01528 12.0694 7.99519 12.0694C7.9751 12.0694 7.94496 12.0493 7.90478 12.0192C5.78537 10.6129 3.9472 8.65423 3.9472 6.88637Z" fill="currentColor"/>
</svg>
