<svg width="22" height="22" viewBox="0 0 22 22" id="root" xmlns="http://www.w3.org/2000/svg">
<path d="M13.5071 8.80264L11.3812 4.23771C11.2311 3.91555 10.7689 3.91555 10.6188 4.23771L8.49292 8.80264C8.43178 8.93394 8.30615 9.02435 8.16117 9.04137L3.12085 9.63327C2.76515 9.67504 2.62229 10.1105 2.88528 10.3514L6.61171 13.7646C6.7189 13.8627 6.76688 14.009 6.73843 14.1508L5.74925 19.0816C5.67944 19.4296 6.05343 19.6987 6.366 19.5254L10.795 17.0699C10.9224 16.9993 11.0776 16.9993 11.205 17.0699L15.634 19.5254C15.9466 19.6987 16.3206 19.4296 16.2508 19.0816L15.2616 14.1508C15.2331 14.009 15.2811 13.8627 15.3883 13.7646L19.1147 10.3514C19.3777 10.1105 19.2349 9.67504 18.8791 9.63327L13.8388 9.04137C13.6939 9.02435 13.5682 8.93394 13.5071 8.80264Z" fill="#FF9F0A"/>
</svg>
