<svg width="22" height="22" viewBox="0 0 22 22" id="root" xmlns="http://www.w3.org/2000/svg">
<path d="M13.5071 8.01456L11.3812 3.44963C11.2311 3.12747 10.7689 3.12747 10.6188 3.44963L8.49292 8.01456C8.43178 8.14586 8.30615 8.23626 8.16117 8.25329L3.12085 8.84519C2.76515 8.88696 2.62229 9.32242 2.88528 9.56329L6.61171 12.9765C6.7189 13.0747 6.76688 13.2209 6.73843 13.3627L5.74925 18.2935C5.67944 18.6415 6.05343 18.9106 6.366 18.7373L10.795 16.2818C10.9224 16.2112 11.0776 16.2112 11.205 16.2818L15.634 18.7373C15.9466 18.9106 16.3206 18.6415 16.2508 18.2935L15.2616 13.3627C15.2331 13.2209 15.2811 13.0747 15.3883 12.9765L19.1147 9.56329C19.3777 9.32242 19.2349 8.88696 18.8791 8.84519L13.8388 8.25329C13.6939 8.23626 13.5682 8.14586 13.5071 8.01456Z" fill="white" stroke="#FF9F0A" stroke-width="1.3617" stroke-linecap="round" stroke-linejoin="round"/>
</svg>
