<svg width="24" height="24" viewBox="0 0 24 24" id="root" xmlns="http://www.w3.org/2000/svg">
<path d="M12 14.3333C13.0125 14.3333 13.8333 13.5125 13.8333 12.5C13.8333 11.4875 13.0125 10.6667 12 10.6667C10.9875 10.6667 10.1667 11.4875 10.1667 12.5C10.1667 13.5125 10.9875 14.3333 12 14.3333Z" fill="currentColor"/>
<path fill-rule="evenodd" clip-rule="evenodd" d="M5.58333 12.5C5.58333 8.95617 8.45617 6.08333 12 6.08333C15.5438 6.08333 18.4167 8.95617 18.4167 12.5C18.4167 16.0438 15.5438 18.9167 12 18.9167C8.45617 18.9167 5.58333 16.0438 5.58333 12.5ZM12 7.91667C9.46869 7.91667 7.41667 9.96869 7.41667 12.5C7.41667 15.0313 9.46869 17.0833 12 17.0833C14.5313 17.0833 16.5833 15.0313 16.5833 12.5C16.5833 9.96869 14.5313 7.91667 12 7.91667Z" fill="currentColor"/>
<path fill-rule="evenodd" clip-rule="evenodd" d="M1 12.5C1 6.42487 5.92487 1.5 12 1.5C18.0751 1.5 23 6.42487 23 12.5C23 18.5751 18.0751 23.5 12 23.5C5.92487 23.5 1 18.5751 1 12.5ZM12 3.33333C6.93739 3.33333 2.83333 7.43739 2.83333 12.5C2.83333 17.5626 6.93739 21.6667 12 21.6667C17.0626 21.6667 21.1667 17.5626 21.1667 12.5C21.1667 7.43739 17.0626 3.33333 12 3.33333Z" fill="currentColor"/>
</svg>
