<svg width="16" height="16" viewBox="0 0 16 16" id="root" xmlns="http://www.w3.org/2000/svg">
<path fill-rule="evenodd" clip-rule="evenodd" d="M7.41531 1.5L7.44152 1.5H8.55848L8.58469 1.5H8.58472C8.91014 1.49998 9.19537 1.49997 9.43062 1.52682C9.68494 1.55586 9.93071 1.62054 10.1563 1.78314C10.3819 1.94574 10.521 2.15844 10.629 2.39053C10.7288 2.60522 10.819 2.87584 10.9219 3.18458L10.9302 3.20943L11.027 3.5H12.6667H14C14.2761 3.5 14.5 3.72386 14.5 4C14.5 4.27615 14.2761 4.5 14 4.5H13.1344L12.765 10.0421L12.758 10.1462V10.1463C12.6905 11.1619 12.6484 11.795 12.4354 12.3188C12.0492 13.2681 11.2664 14.0004 10.2936 14.3226C9.75678 14.5003 9.12224 14.5002 8.10436 14.5L8 14.5L7.89564 14.5C6.87776 14.5002 6.24322 14.5003 5.70639 14.3226C4.73356 14.0004 3.9508 13.2681 3.56465 12.3188C3.35156 11.795 3.30947 11.1619 3.24196 10.1462L3.23503 10.0421L2.86556 4.5H2C1.72386 4.5 1.5 4.27615 1.5 4C1.5 3.72386 1.72386 3.5 2 3.5H3.33333H4.97295L5.06981 3.20943L5.07809 3.18458C5.18099 2.87583 5.27117 2.60522 5.37105 2.39053C5.47902 2.15844 5.61809 1.94574 5.84369 1.78314C6.06929 1.62054 6.31506 1.55586 6.56938 1.52682C6.80463 1.49997 7.08986 1.49998 7.41528 1.5H7.41531ZM6.02705 3.5H9.97295C9.86418 3.17384 9.79334 2.96513 9.72226 2.81233C9.65475 2.66722 9.60788 2.62054 9.5716 2.59438C9.53531 2.56823 9.4762 2.53852 9.31719 2.52037C9.14541 2.50076 8.91786 2.5 8.55848 2.5H7.44152C7.08214 2.5 6.8546 2.50076 6.68281 2.52037C6.5238 2.53852 6.46469 2.56823 6.4284 2.59438C6.39212 2.62054 6.34525 2.66722 6.27774 2.81233C6.20666 2.96513 6.13582 3.17384 6.02705 3.5ZM3.86778 4.5L4.23282 9.9756C4.30977 11.1299 4.34661 11.5872 4.49094 11.942C4.76676 12.6201 5.32588 13.1432 6.02075 13.3733C6.38436 13.4937 6.84311 13.5 8 13.5C9.15689 13.5 9.61564 13.4937 9.97925 13.3733C10.6741 13.1432 11.2332 12.6201 11.5091 11.942C11.6534 11.5872 11.6902 11.1299 11.7672 9.9756L12.1322 4.5H10.6667H5.33333H3.86778ZM6.66667 6.16667C6.94281 6.16667 7.16667 6.39053 7.16667 6.66667V11.3333C7.16667 11.6095 6.94281 11.8333 6.66667 11.8333C6.39052 11.8333 6.16667 11.6095 6.16667 11.3333V6.66667C6.16667 6.39053 6.39052 6.16667 6.66667 6.16667ZM9.83333 6.66667C9.83333 6.39053 9.60948 6.16667 9.33333 6.16667C9.05719 6.16667 8.83333 6.39053 8.83333 6.66667V9.33334C8.83333 9.60948 9.05719 9.83334 9.33333 9.83334C9.60948 9.83334 9.83333 9.60948 9.83333 9.33334V6.66667Z" fill="currentColor"/>
</svg>
