<svg width="33" height="32" viewBox="0 0 33 32" id="root" xmlns="http://www.w3.org/2000/svg">
<path d="M11.7539 6.60266L11.6743 5.60583L11.6743 5.60583L11.7539 6.60266ZM13.2111 5.99905L12.5625 5.23794L12.5625 5.23794L13.2111 5.99905ZM7.27281 9.12174L8.26964 9.20128L8.26964 9.20128L7.27281 9.12174ZM9.62174 6.77281L9.70128 7.76964L9.70128 7.76964L9.62174 6.77281ZM6.49905 12.7111L5.73794 12.0625L5.73794 12.0625L6.49905 12.7111ZM7.10266 11.2539L6.10583 11.1743L6.10583 11.1743L7.10266 11.2539ZM5.11172 17.6609L5.87284 17.0123L5.87284 17.0123L5.11172 17.6609ZM5.11172 14.3391L5.87284 14.9877L5.87284 14.9877L5.11172 14.3391ZM7.10266 20.7461L8.09949 20.6666L8.09949 20.6666L7.10266 20.7461ZM6.49905 19.2889L5.73794 19.9375L5.73794 19.9375L6.49905 19.2889ZM9.62174 25.2272L9.54219 26.224L9.54219 26.224L9.62174 25.2272ZM7.27281 22.8783L6.27598 22.9578L6.27598 22.9578L7.27281 22.8783ZM13.2111 26.0009L13.8597 25.2398L13.8597 25.2398L13.2111 26.0009ZM11.7539 25.3973L11.8334 24.4005L11.8334 24.4005L11.7539 25.3973ZM18.1609 27.3883L18.8096 28.1494L18.8096 28.1494L18.1609 27.3883ZM14.8391 27.3883L14.1904 28.1494L14.1904 28.1494L14.8391 27.3883ZM21.2461 25.3973L21.1666 24.4005L21.1666 24.4005L21.2461 25.3973ZM19.7889 26.0009L19.1403 25.2398L19.1403 25.2398L19.7889 26.0009ZM25.7272 22.8783L26.724 22.9578L26.724 22.9578L25.7272 22.8783ZM23.3783 25.2272L23.4578 26.224L23.4578 26.224L23.3783 25.2272ZM26.5009 19.2889L25.7398 18.6403L25.7398 18.6403L26.5009 19.2889ZM25.8973 20.7461L24.9005 20.6666L24.9005 20.6666L25.8973 20.7461ZM27.8883 14.3391L28.6494 13.6904L28.6494 13.6904L27.8883 14.3391ZM27.8883 17.6609L28.6494 18.3096L28.6494 18.3096L27.8883 17.6609ZM25.8973 11.2539L24.9005 11.3334L24.9005 11.3334L25.8973 11.2539ZM26.5009 12.7111L25.7398 13.3597L25.7398 13.3597L26.5009 12.7111ZM23.3783 6.77281L23.4578 5.77598L23.4578 5.77598L23.3783 6.77281ZM25.7272 9.12174L26.724 9.04219L26.724 9.04219L25.7272 9.12174ZM19.7889 5.99905L20.4375 5.23794L20.4375 5.23794L19.7889 5.99905ZM21.2461 6.60266L21.1666 7.59949L21.1666 7.59949L21.2461 6.60266ZM18.1609 4.61172L17.5123 5.37284L17.5123 5.37284L18.1609 4.61172ZM14.8391 4.61172L15.4877 5.37284L15.4877 5.37284L14.8391 4.61172ZM21.2071 14.0404C21.5976 13.6499 21.5976 13.0168 21.2071 12.6262C20.8166 12.2357 20.1834 12.2357 19.7929 12.6262L21.2071 14.0404ZM15.1667 18.6667L14.4596 19.3738C14.8501 19.7643 15.4832 19.7643 15.8738 19.3738L15.1667 18.6667ZM13.2071 15.2929C12.8166 14.9024 12.1834 14.9024 11.7929 15.2929C11.4024 15.6834 11.4024 16.3166 11.7929 16.7071L13.2071 15.2929ZM17.5123 5.37284L19.1403 6.76017L20.4375 5.23794L18.8096 3.85061L17.5123 5.37284ZM21.1666 7.59949L23.2987 7.76964L23.4578 5.77598L21.3257 5.60583L21.1666 7.59949ZM24.7304 9.20128L24.9005 11.3334L26.8942 11.1743L26.724 9.04219L24.7304 9.20128ZM25.7398 13.3597L27.1272 14.9877L28.6494 13.6904L27.2621 12.0625L25.7398 13.3597ZM27.1272 17.0123L25.7398 18.6403L27.2621 19.9375L28.6494 18.3096L27.1272 17.0123ZM24.9005 20.6666L24.7304 22.7987L26.724 22.9578L26.8942 20.8257L24.9005 20.6666ZM23.2987 24.2304L21.1666 24.4005L21.3257 26.3942L23.4578 26.224L23.2987 24.2304ZM19.1403 25.2398L17.5123 26.6272L18.8096 28.1494L20.4375 26.7621L19.1403 25.2398ZM15.4877 26.6272L13.8597 25.2398L12.5625 26.7621L14.1904 28.1494L15.4877 26.6272ZM11.8334 24.4005L9.70128 24.2304L9.54219 26.224L11.6743 26.3942L11.8334 24.4005ZM8.26964 22.7987L8.09949 20.6666L6.10583 20.8257L6.27598 22.9578L8.26964 22.7987ZM7.26017 18.6403L5.87284 17.0123L4.35061 18.3096L5.73794 19.9375L7.26017 18.6403ZM5.87284 14.9877L7.26017 13.3597L5.73794 12.0625L4.35061 13.6904L5.87284 14.9877ZM8.09949 11.3334L8.26964 9.20128L6.27598 9.04219L6.10583 11.1743L8.09949 11.3334ZM9.70128 7.76964L11.8334 7.59949L11.6743 5.60583L9.54219 5.77598L9.70128 7.76964ZM13.8597 6.76017L15.4877 5.37284L14.1904 3.85061L12.5625 5.23794L13.8597 6.76017ZM11.8334 7.59949C12.5803 7.53989 13.2894 7.24618 13.8597 6.76017L12.5625 5.23794C12.3125 5.45097 12.0017 5.57971 11.6743 5.60583L11.8334 7.59949ZM8.26964 9.20128C8.33061 8.43729 8.93729 7.83061 9.70128 7.76964L9.54219 5.77598C7.79917 5.91507 6.41507 7.29917 6.27598 9.04219L8.26964 9.20128ZM7.26017 13.3597C7.74618 12.7894 8.03989 12.0803 8.09949 11.3334L6.10583 11.1743C6.07971 11.5017 5.95097 11.8125 5.73794 12.0625L7.26017 13.3597ZM5.87284 17.0123C5.37572 16.429 5.37572 15.571 5.87284 14.9877L4.35061 13.6904C3.21646 15.0213 3.21646 16.9787 4.35061 18.3096L5.87284 17.0123ZM8.09949 20.6666C8.03989 19.9197 7.74618 19.2106 7.26017 18.6403L5.73794 19.9375C5.95097 20.1875 6.07971 20.4983 6.10583 20.8257L8.09949 20.6666ZM9.70128 24.2304C8.93729 24.1694 8.33061 23.5627 8.26964 22.7987L6.27598 22.9578C6.41507 24.7008 7.79917 26.0849 9.54219 26.224L9.70128 24.2304ZM13.8597 25.2398C13.2894 24.7538 12.5803 24.4601 11.8334 24.4005L11.6743 26.3942C12.0017 26.4203 12.3125 26.549 12.5625 26.7621L13.8597 25.2398ZM17.5123 26.6272C16.929 27.1243 16.071 27.1243 15.4877 26.6272L14.1904 28.1494C15.5213 29.2835 17.4787 29.2835 18.8096 28.1494L17.5123 26.6272ZM21.1666 24.4005C20.4197 24.4601 19.7106 24.7538 19.1403 25.2398L20.4375 26.7621C20.6875 26.549 20.9983 26.4203 21.3257 26.3942L21.1666 24.4005ZM24.7304 22.7987C24.6694 23.5627 24.0627 24.1694 23.2987 24.2304L23.4578 26.224C25.2008 26.0849 26.5849 24.7008 26.724 22.9578L24.7304 22.7987ZM25.7398 18.6403C25.2538 19.2106 24.9601 19.9197 24.9005 20.6666L26.8942 20.8257C26.9203 20.4983 27.049 20.1875 27.2621 19.9375L25.7398 18.6403ZM27.1272 14.9877C27.6243 15.571 27.6243 16.429 27.1272 17.0123L28.6494 18.3096C29.7835 16.9787 29.7835 15.0213 28.6494 13.6904L27.1272 14.9877ZM24.9005 11.3334C24.9601 12.0803 25.2538 12.7894 25.7398 13.3597L27.2621 12.0625C27.049 11.8125 26.9203 11.5017 26.8942 11.1743L24.9005 11.3334ZM23.2987 7.76964C24.0627 7.83061 24.6694 8.43729 24.7304 9.20128L26.724 9.04219C26.5849 7.29917 25.2008 5.91507 23.4578 5.77598L23.2987 7.76964ZM19.1403 6.76017C19.7106 7.24618 20.4197 7.53989 21.1666 7.59949L21.3257 5.60583C20.9983 5.57971 20.6875 5.45097 20.4375 5.23794L19.1403 6.76017ZM18.8096 3.85061C17.4787 2.71646 15.5213 2.71646 14.1904 3.85061L15.4877 5.37284C16.071 4.87572 16.929 4.87572 17.5123 5.37284L18.8096 3.85061ZM19.7929 12.6262L14.4596 17.9596L15.8738 19.3738L21.2071 14.0404L19.7929 12.6262ZM15.8738 17.9596L13.2071 15.2929L11.7929 16.7071L14.4596 19.3738L15.8738 17.9596Z" fill="currentColor"/>
</svg>
